<svg xmlns="http://www.w3.org/2000/svg" xmlns:xlink="http://www.w3.org/1999/xlink" width="35.917" height="34.329" viewBox="0 0 35.917 34.329">
  <defs>
    <clipPath id="clip-path">
      <rect id="Rectangle_131" data-name="Rectangle 131" width="18.379" height="18.379" rx="2" transform="translate(6.964 7.586)" fill="#ffc400"/>
    </clipPath>
  </defs>
  <g id="ready_to_ship" transform="matrix(0.966, -0.259, 0.259, 0.966, 1.21, 1.857)">
    <path id="Path_760" data-name="Path 760" d="M4.595,5.36A4.6,4.6,0,0,0,0,.767" fill="none" stroke="#ffc400" stroke-linecap="round" stroke-width="2.3" fill-rule="evenodd"/>
    <g id="Group_55" data-name="Group 55">
      <rect id="Rectangle_130" data-name="Rectangle 130" width="22.974" height="3.446" rx="1.723" transform="translate(4.595 27.761)" fill="#ffc400"/>
      <path id="Path_761" data-name="Path 761" d="M5.744,5.36V28.335a1.149,1.149,0,0,1-2.3,0V5.36a1.149,1.149,0,1,1,2.3,0Z" fill="#ffc400" fill-rule="evenodd"/>
    </g>
    <circle id="Ellipse_76" data-name="Ellipse 76" cx="3.731" cy="3.731" r="3.731" transform="translate(0.864 25.753)" fill="#ff8b00" stroke="#fff" stroke-width="1"/>
    <rect id="Rectangle_132" data-name="Rectangle 132" width="18.379" height="18.379" rx="2" transform="translate(6.964 7.586)" fill="#ffc400"/>
    <g id="Mask_Group_7" data-name="Mask Group 7" clip-path="url(#clip-path)">
      <path id="Path_762" data-name="Path 762" d="M24.578,19.385A11.488,11.488,0,1,1,36.065,7.9,11.49,11.49,0,0,1,24.578,19.385Z" transform="translate(0)" fill="#ff8b00" fill-rule="evenodd"/>
    </g>
    <path id="Path_763" data-name="Path 763" d="M23.12,13.256l-4.745,0a.644.644,0,0,1-.7-.552V10.75a.638.638,0,0,1,.7-.554H23.12a.632.632,0,0,1,.69.552V12.7a.631.631,0,0,1-.7.553" fill="#fff" fill-rule="evenodd"/>
  </g>
</svg>
