<svg id="awaiting_confirmation" xmlns="http://www.w3.org/2000/svg" xmlns:xlink="http://www.w3.org/1999/xlink" width="29.538" height="29.538" viewBox="0 0 29.538 29.538">
  <defs>
    <clipPath id="clip-path">
      <path id="Path_650" data-name="Path 650" d="M29.538,14.77A14.769,14.769,0,1,1,14.77,0,14.77,14.77,0,0,1,29.538,14.77" fill="#4fd15a"/>
    </clipPath>
  </defs>
  <g id="Group_45" data-name="Group 45">
    <path id="Path_653" data-name="Path 653" d="M29.538,14.77A14.769,14.769,0,1,1,14.77,0,14.77,14.77,0,0,1,29.538,14.77" fill="#c04fd1"/>
    <g id="Mask_Group_3" data-name="Mask Group 3" clip-path="url(#clip-path)">
      <path id="Path_651" data-name="Path 651" d="M21.1,7.27A14.769,14.769,0,1,1,6.332-7.5,14.769,14.769,0,0,1,21.1,7.27" fill="#4c03ac"/>
    </g>
    <g id="Group_44" data-name="Group 44">
      <path id="Path_652" data-name="Path 652" d="M15.615,3.692a1,1,0,0,1,1,1v8.23H23a1,1,0,0,1,1,1v1.692a1,1,0,0,1-1,1H13.923a1,1,0,0,1-1-1V4.692a1,1,0,0,1,1-1h1.692Z" fill="#fff"/>
      <rect id="Rectangle_125" data-name="Rectangle 125" width="3.692" height="12.923" rx="1.846" transform="translate(12.923 3.692)" fill="#fff"/>
    </g>
  </g>
</svg>
