<svg xmlns="http://www.w3.org/2000/svg" width="20" height="32.5" viewBox="0 0 20 32.5">
  <g id="delivered" transform="translate(0 -0.5)">
    <path id="Path_632" data-name="Path 632" d="M14.964,25.663C17.4,26.38,19,27.606,19,29c0,2.2-4.03,4-9,4s-9-1.8-9-4c0-1.4,1.594-2.614,4.015-3.33Q6.691,27.814,8.561,29.8l.156.164a1.725,1.725,0,0,0,1.124.535L10,30.5a1.757,1.757,0,0,0,1.158-.433l.12-.114q1.862-1.972,3.541-4.1Z" fill="#4c03ac" fill-rule="evenodd"/>
    <path id="Path_636" data-name="Path 636" d="M0,10.4c0,7.05,6.353,14.8,8.93,17.637a1.43,1.43,0,0,0,2.131-.005h0C13.635,25.16,20,17.44,20,10.183A9.751,9.751,0,0,0,10,.5,9.834,9.834,0,0,0,0,10.4" fill="#c04fd1"/>
    <path id="Intersection_1" data-name="Intersection 1" d="M-2167.2-472.567a9.88,9.88,0,0,1,9.2-5.933,9.751,9.751,0,0,1,10,9.683,18.926,18.926,0,0,1-2.183,8.147,14.873,14.873,0,0,1-2.487.208A14.774,14.774,0,0,1-2167.2-472.567Z" transform="translate(2168 479)" fill="#4c03ac"/>
    <path id="Path_635" data-name="Path 635" d="M14,9.5a4,4,0,1,1-4-4,4,4,0,0,1,4,4" fill="#fff" fill-rule="evenodd"/>
  </g>
</svg>
