<svg xmlns="http://www.w3.org/2000/svg" width="128" height="96.5" viewBox="0 0 128 96.5">
  <g id="destination" transform="translate(-511 -727.5)">
    <g id="delivered" transform="translate(619 727)">
      <path id="Path_632" data-name="Path 632" d="M14.964,25.663C17.4,26.38,19,27.606,19,29c0,2.2-4.03,4-9,4s-9-1.8-9-4c0-1.4,1.594-2.614,4.015-3.33Q6.691,27.814,8.561,29.8l.156.164a1.725,1.725,0,0,0,1.124.535L10,30.5a1.757,1.757,0,0,0,1.158-.433l.12-.114q1.862-1.972,3.541-4.1Z" fill="#4c03ac" fill-rule="evenodd"/>
      <path id="Path_636" data-name="Path 636" d="M0,10.4c0,7.05,6.353,14.8,8.93,17.637a1.43,1.43,0,0,0,2.131-.005h0C13.635,25.16,20,17.44,20,10.183A9.751,9.751,0,0,0,10,.5,9.834,9.834,0,0,0,0,10.4" fill="#c04fd1"/>
      <path id="Intersection_1" data-name="Intersection 1" d="M-2167.2-472.567a9.88,9.88,0,0,1,9.2-5.933,9.751,9.751,0,0,1,10,9.683,18.926,18.926,0,0,1-2.183,8.147,14.873,14.873,0,0,1-2.487.208A14.774,14.774,0,0,1-2167.2-472.567Z" transform="translate(2168 479)" fill="#4c03ac"/>
      <path id="Path_635" data-name="Path 635" d="M14,9.5a4,4,0,1,1-4-4,4,4,0,0,1,4,4" fill="#fff" fill-rule="evenodd"/>
    </g>
    <g id="delivered-2" data-name="delivered" transform="translate(511 791)">
      <path id="Path_632-2" data-name="Path 632" d="M14.964,25.663C17.4,26.38,19,27.606,19,29c0,2.2-4.03,4-9,4s-9-1.8-9-4c0-1.4,1.594-2.614,4.015-3.33Q6.691,27.814,8.561,29.8l.156.164a1.725,1.725,0,0,0,1.124.535L10,30.5a1.757,1.757,0,0,0,1.158-.433l.12-.114q1.862-1.972,3.541-4.1Z" fill="#2000ff" fill-rule="evenodd"/>
      <path id="Path_636-2" data-name="Path 636" d="M0,10.4c0,7.05,6.353,14.8,8.93,17.637a1.43,1.43,0,0,0,2.131-.005h0C13.635,25.16,20,17.44,20,10.183A9.751,9.751,0,0,0,10,.5,9.834,9.834,0,0,0,0,10.4" fill="#0098fe"/>
      <path id="Intersection_1-2" data-name="Intersection 1" d="M-2167.2-472.567a9.88,9.88,0,0,1,9.2-5.933,9.751,9.751,0,0,1,10,9.683,18.926,18.926,0,0,1-2.183,8.147,14.873,14.873,0,0,1-2.487.208A14.774,14.774,0,0,1-2167.2-472.567Z" transform="translate(2168 479)" fill="#2000ff"/>
      <path id="Path_635-2" data-name="Path 635" d="M14,9.5a4,4,0,1,1-4-4,4,4,0,0,1,4,4" fill="#fff" fill-rule="evenodd"/>
    </g>
    <path id="Path_671" data-name="Path 671" d="M3877,1989.326s75.329,2.82,74.859-20.213-70.862-5.641-70.98-25.854,78.5-17.393,78.5-17.393" transform="translate(-3340 -1170)" fill="none" stroke="#3e4148" stroke-linecap="round" stroke-linejoin="round" stroke-width="2" stroke-dasharray="9"/>
  </g>
</svg>
