<svg id="processed" xmlns="http://www.w3.org/2000/svg" xmlns:xlink="http://www.w3.org/1999/xlink" width="29.538" height="29.538" viewBox="0 0 29.538 29.538">
  <defs>
    <clipPath id="clip-path">
      <path id="Path_646" data-name="Path 646" d="M29.538,14.77A14.769,14.769,0,1,1,14.77,0,14.77,14.77,0,0,1,29.538,14.77" fill="#4fd15a"/>
    </clipPath>
  </defs>
  <g id="Group_43" data-name="Group 43">
    <path id="Path_649" data-name="Path 649" d="M29.538,14.77A14.769,14.769,0,1,1,14.77,0,14.77,14.77,0,0,1,29.538,14.77" fill="#c04fd1"/>
    <g id="Mask_Group_2" data-name="Mask Group 2" clip-path="url(#clip-path)">
      <path id="Path_647" data-name="Path 647" d="M21.1,7.27A14.769,14.769,0,1,1,6.332-7.5,14.769,14.769,0,0,1,21.1,7.27" fill="#4c03ac"/>
    </g>
  </g>
  <path id="Path_648" data-name="Path 648" d="M23.57,13.66A1.34,1.34,0,0,0,22.231,15a7.1,7.1,0,0,1-9.525,6.712l.7-1.2a1.059,1.059,0,0,0-.913-1.6l-.058,0-.163.01-4.853.262a1.059,1.059,0,0,0-.9,1.517l.388.808,1.783,3.722a1.07,1.07,0,0,0,.908.6,1.05,1.05,0,0,0,.958-.518l.77-1.3a1.163,1.163,0,0,0,.2.13A9.821,9.821,0,0,0,24.9,15a1.34,1.34,0,0,0-1.339-1.339M7.768,15a7.1,7.1,0,0,1,9.525-6.713l-.7,1.2a1.061,1.061,0,0,0,.91,1.6.582.582,0,0,0,.06,0l5.017-.272a1.061,1.061,0,0,0,.9-1.517l-.465-.967L21.306,4.765a1.063,1.063,0,0,0-.909-.6,1.048,1.048,0,0,0-.956.518l-.77,1.295a2.077,2.077,0,0,0-.2-.13A9.821,9.821,0,0,0,5.1,15a1.34,1.34,0,1,0,2.68,0" fill="#fff" fill-rule="evenodd"/>
</svg>
