<svg xmlns="http://www.w3.org/2000/svg" xmlns:xlink="http://www.w3.org/1999/xlink" width="40" height="24.353" viewBox="0 0 40 24.353">
  <defs>
    <clipPath id="clip-path">
      <path id="Path_639" data-name="Path 639" d="M2.934,0A2.933,2.933,0,0,0,0,2.934v14.25a2.934,2.934,0,0,0,2.933,2.934H20.118v-18A2.118,2.118,0,0,0,18,0Z" fill="#4fd15a"/>
    </clipPath>
  </defs>
  <g id="shipping" transform="translate(0 -8)">
    <path id="Path_637" data-name="Path 637" d="M26.236,12.235h5.057a2.212,2.212,0,0,1,1.67.962l3.883,5.588,1.934.873A2.182,2.182,0,0,1,40,21.63v5.426a1.06,1.06,0,0,1-1.06,1.06h-12.7V12.236Z" fill="#c04fd1"/>
    <path id="Path_638" data-name="Path 638" d="M36.847,18.785H30.3a.4.4,0,0,1-.394-.325l-.532-3.052H34.5l2.347,3.377Z" fill="#fff" fill-rule="evenodd"/>
    <g id="Group_41" data-name="Group 41" transform="translate(5 8)">
      <g id="Group_40" data-name="Group 40">
        <path id="Path_645" data-name="Path 645" d="M2.934,0A2.933,2.933,0,0,0,0,2.934v14.25a2.934,2.934,0,0,0,2.933,2.934H20.118v-18A2.118,2.118,0,0,0,18,0Z" fill="#c04fd1"/>
        <g id="Mask_Group_1" data-name="Mask Group 1" clip-path="url(#clip-path)">
          <path id="Path_640" data-name="Path 640" d="M32-.44a12.5,12.5,0,0,1-12.5,12.5A12.5,12.5,0,0,1,7-.44a12.5,12.5,0,0,1,12.5-12.5A12.5,12.5,0,0,1,32-.44" fill="#4c03ac"/>
        </g>
      </g>
    </g>
    <path id="Path_641" data-name="Path 641" d="M17.706,28.118a4.235,4.235,0,1,1-4.235-4.235,4.235,4.235,0,0,1,4.235,4.235" fill="#4c03ac"/>
    <path id="Path_642" data-name="Path 642" d="M15.6,28.118A2.118,2.118,0,1,1,13.482,26,2.117,2.117,0,0,1,15.6,28.118" fill="#fff"/>
    <path id="Path_643" data-name="Path 643" d="M17.706,28.118a4.235,4.235,0,1,1-4.235-4.235,4.235,4.235,0,0,1,4.235,4.235" transform="translate(19.118)" fill="#4c03ac"/>
    <path id="Path_644" data-name="Path 644" d="M15.6,28.118A2.118,2.118,0,1,1,13.482,26,2.117,2.117,0,0,1,15.6,28.118" transform="translate(19.108)" fill="#fff"/>
    <g id="Group_42" data-name="Group 42">
      <rect id="Rectangle_123" data-name="Rectangle 123" width="6" height="3" rx="1.5" transform="translate(2 13)" fill="#4c03ac"/>
      <rect id="Rectangle_124" data-name="Rectangle 124" width="11" height="3" rx="1.5" transform="translate(0 18)" fill="#4c03ac"/>
    </g>
  </g>
</svg>
